# xmcd
# 
# Track frame offsets:
#     150
#     22718
#     42624
#     64624
#     92169
#     121756
#     148968
#     174526
#     209550
#     233869
# 
# Disc length: 3402
# 
# Revision: 2
# Processed by: cddbd v1.5.2PL0 Copyright (c) Steve Scherf et al.
# Submitted via: BonkEnc v1.0.8
# 
DISCID=8b0d480a
DTITLE=Gerald Gradwohl - ABQ
DYEAR=2002
DGENRE=Fusion
TTITLE0=Pau Wau
TTITLE1=Giant Steps
TTITLE2=Albuquerque Road
TTITLE3=Anthem
TTITLE4=News On The Net
TTITLE5=AW 3
TTITLE6=Hornsong
TTITLE7=Princess (For Saskia)
TTITLE8=Groove Chicken
TTITLE9=Goodbye [Late Night Western Mix]
EXTD=YEAR: 2003
EXTT0=
EXTT1=
EXTT2=
EXTT3=
EXTT4=
EXTT5=
EXTT6=
EXTT7=
EXTT8=
EXTT9=
PLAYORDER=
